# xmcd CD database file
#
# Track frame offsets:
#	182
#	34425
#	51450
#	66782
#	97072
#	138785
#	164800
#	180205
#	206412
#	225865
#	267582
#
# Disc length: 3919 seconds
#
# Revision: 0
# Processed by: cddbd v1.5.1PL0 Copyright (c) Steve Scherf et al.
# Submitted via: Feurio! 1.67 - http://www.feurio.com
#
DISCID=9c0f4d0b
DTITLE=Alexis Korner and Friends - The Party Album
DYEAR=1979
DGENRE=
TTITLE0=Things Ain't What They Used To Be
TTITLE1=Captain's Tiger
TTITLE2=Skipping
TTITLE3=Spoonful
TTITLE4=Medley: Finkle's Cafe - Dooji Hooji
TTITLE5=Whole Mess Of Blues
TTITLE6=Lining Track
TTITLE7=Robert Johnson
TTITLE8=Hey Pretty Mama
TTITLE9=Hi-Heel Sneakers
TTITLE10=Stormy Monday Blues
EXTD=
EXTT0=
EXTT1=
EXTT2=
EXTT3=
EXTT4=
EXTT5=
EXTT6=
EXTT7=
EXTT8=
EXTT9=
EXTT10=
PLAYORDER=
